<svg id="grid" xmlns="http://www.w3.org/2000/svg" width="21.875" height="21.875" viewBox="0 0 21.875 21.875">
  <g id="Group_2036" data-name="Group 2036">
    <g id="Group_2035" data-name="Group 2035">
      <path id="Path_22887" data-name="Path 22887" d="M9.255,0H.841A.841.841,0,0,0,0,.841V9.255a.841.841,0,0,0,.841.841H9.255a.841.841,0,0,0,.841-.841V.841A.841.841,0,0,0,9.255,0Z" fill="#fff"/>
      <path id="Path_22888" data-name="Path 22888" d="M155.54,0h-8.413a.841.841,0,0,0-.841.841V9.255a.841.841,0,0,0,.841.841h8.413a.841.841,0,0,0,.841-.841V.841A.841.841,0,0,0,155.54,0Z" transform="translate(-134.506 0)" fill="#fff"/>
      <path id="Path_22889" data-name="Path 22889" d="M9.255,146.286H.841a.841.841,0,0,0-.841.841v8.413a.841.841,0,0,0,.841.841H9.255a.841.841,0,0,0,.841-.841v-8.413A.841.841,0,0,0,9.255,146.286Z" transform="translate(0 -134.507)" fill="#fff"/>
      <path id="Path_22890" data-name="Path 22890" d="M155.54,146.286h-8.413a.841.841,0,0,0-.841.841v8.413a.841.841,0,0,0,.841.841h8.413a.841.841,0,0,0,.841-.841v-8.413A.841.841,0,0,0,155.54,146.286Z" transform="translate(-134.506 -134.507)" fill="#fff"/>
    </g>
  </g>
</svg>
