<svg xmlns="http://www.w3.org/2000/svg" width="40" height="40" viewBox="0 0 40 40">
  <g id="Group_1902" data-name="Group 1902" transform="translate(-406 -2564)">
    <circle id="Ellipse_11" data-name="Ellipse 11" cx="20" cy="20" r="20" transform="translate(406 2564)" fill="#3a559f"/>
    <path id="Path_22759" data-name="Path 22759" d="M3.008-11.5H6.68v-8.945H9.531L10-24H6.68v-2.461a2,2,0,0,1,.313-1.25,1.814,1.814,0,0,1,1.445-.469h1.875v-3.164A19.347,19.347,0,0,0,7.578-31.5a4.528,4.528,0,0,0-3.32,1.23,4.632,4.632,0,0,0-1.25,3.457V-24H0v3.555H3.008Z" transform="translate(421 2605.5)" fill="#fff"/>
  </g>
</svg>
