<svg id="Layer_1" data-name="Layer 1" xmlns="http://www.w3.org/2000/svg" viewBox="0 0 88.52 100.03"><title>coconut</title><path d="M10.74,25.06l3.42,1.11A1.92,1.92,0,0,1,15.4,28.6a1.9,1.9,0,0,1-.27.54L13,32a3.85,3.85,0,1,0,6.23,4.52l2.12-2.91a1.93,1.93,0,0,1,3.11,0l2.12,2.91A3.85,3.85,0,1,0,32.82,32L30.7,29.13a1.93,1.93,0,0,1,1-3l3.19-1,.1,0,.14,0a3.85,3.85,0,0,0-2.38-7.32l-3.42,1.11A1.92,1.92,0,0,1,26.77,17v-3.6a3.85,3.85,0,0,0-7.7,0V17a1.92,1.92,0,0,1-2.52,1.83l-3.42-1.11a3.85,3.85,0,1,0-2.71,7.2l.33.11ZM22.91,19.2A5.77,5.77,0,1,1,17.14,25,5.77,5.77,0,0,1,22.91,19.2Z" transform="translate(-6.15 0.03)"/><path d="M62,14.57l20.16-11A1.92,1.92,0,0,0,82.89,1h0a2,2,0,0,0-2.6-.77L59.12,11.73a1.92,1.92,0,0,0-1,1.69V25H62Z" transform="translate(-6.15 0.03)"/><path d="M24.84,25A1.92,1.92,0,1,1,22.91,23,1.92,1.92,0,0,1,24.84,25Z" transform="translate(-6.15 0.03)"/><path d="M35.37,29l.56.77A7.7,7.7,0,0,1,29.71,42a8,8,0,0,1-1.22-.1,7.65,7.65,0,0,1-5-3.07l-.56-.77-.56.77A7.7,7.7,0,0,1,13,41.33l-1.41,1.91,25.7,8.66h24.4l27.52-8.7L78,28.82H36Z" transform="translate(-6.15 0.03)"/><path d="M91.32,46.57l-28.79,9.1a2,2,0,0,1-.58.09h-25a1.89,1.89,0,0,1-.61-.1L9.49,46.6a44.25,44.25,0,0,0,16,53.41H75.35a44.26,44.26,0,0,0,16-53.44ZM19.63,65.37a1.92,1.92,0,0,1-3.85,0V61.53a1.92,1.92,0,1,1,3.85,0ZM25.4,76.92V73.07a1.92,1.92,0,0,1,3.85,0v3.85a1.92,1.92,0,0,1-3.85,0Zm5.77,17.32a1.92,1.92,0,1,1-3.85,0V90.39a1.92,1.92,0,0,1,3.85,0Zm11-25.57a2,2,0,0,1-.63.4,1.81,1.81,0,0,1-1.46,0,2,2,0,0,1-.63-.4,2,2,0,0,1,0-2.73,2,2,0,0,1,.63-.4,1.92,1.92,0,0,1,2.1.4A2,2,0,0,1,42.16,68.66Zm10.18,19.8a1.92,1.92,0,0,1-3.85,0V84.62a1.92,1.92,0,0,1,3.85,0Zm2.78-14.58a10.57,10.57,0,0,1-9.42,0,1.92,1.92,0,0,1,1.69-3.46h0a6.7,6.7,0,0,0,6,0,1.92,1.92,0,0,1,1.75,3.43Zm6.28-5.22a2,2,0,0,1-.63.4,1.81,1.81,0,0,1-1.46,0,2,2,0,0,1-.63-.4,2,2,0,0,1,0-2.73,2,2,0,0,1,.63-.4,1.92,1.92,0,0,1,2.1.4A2,2,0,0,1,61.4,68.66ZM73.5,92.31a1.92,1.92,0,1,1-3.85,0V88.46a1.92,1.92,0,0,1,3.85,0Zm7.7-11.54a1.92,1.92,0,0,1-3.85,0V76.92a1.92,1.92,0,1,1,3.85,0ZM85,65.37a1.92,1.92,0,0,1-3.85,0V61.53a1.92,1.92,0,0,1,3.85,0Z" transform="translate(-6.15 0.03)"/></svg>