<svg xmlns="http://www.w3.org/2000/svg" width="19.216" height="24" viewBox="0 0 19.216 24">
  <path id="women-hairstyling" d="M24.99,9.453C24.6,5.635,22.089,1.108,17.476.19A9.987,9.987,0,0,0,15.531,0,10.148,10.148,0,0,0,7.27,4.142c-.045.064-.089.129-.132.2a7.7,7.7,0,0,0,.706,9.5c.177.173.365.338.553.5a5.073,5.073,0,0,1,1.143,1.241,3.366,3.366,0,0,1,.013,2.935A10.413,10.413,0,0,1,7.76,21.11a.205.205,0,0,0,.169.337,5.64,5.64,0,0,0,4.084-2.313,5.641,5.641,0,0,0,1.125-4.556.205.205,0,0,0-.366-.078.932.932,0,0,1-.78.361,1.591,1.591,0,0,1-1.05-.416,5.531,5.531,0,0,1-1.329-4.259,8.962,8.962,0,0,1,.973-3.29l.043-.1a4.771,4.771,0,0,0,1.949,2.635c.223.161.454.317.687.474a5.734,5.734,0,0,1,2.4,2.4c.6,1.57-.322,3.291-1.413,4.918a.2.2,0,0,0,0,.211.215.215,0,0,0,.187.109,2.217,2.217,0,0,0,1.392-.508c-.031,1.823-1.942,3.265-3.43,4.214L8.857,23.512a.205.205,0,0,0,.082.376A11.618,11.618,0,0,0,10.55,24c3.914,0,8.084-1.975,11.443-5.419A11.662,11.662,0,0,0,24.99,9.453Z" transform="translate(-5.833)" fill="#fff"/>
</svg>
