<svg xmlns="http://www.w3.org/2000/svg" width="30.237" height="23.938" viewBox="0 0 30.237 23.938">
  <g id="home_1_" data-name="home (1)" transform="translate(0 -46.994)">
    <g id="Group_2030" data-name="Group 2030" transform="translate(-0.001 46.994)">
      <path id="Path_22882" data-name="Path 22882" d="M76.6,120.939l-10.886,8.68a.242.242,0,0,1-.01.055.242.242,0,0,0-.01.055v8.79a1.108,1.108,0,0,0,.36.824,1.185,1.185,0,0,0,.852.348h7.27v-7.032h4.847v7.032H86.3a1.183,1.183,0,0,0,.852-.349,1.108,1.108,0,0,0,.36-.824v-8.79a.251.251,0,0,0-.019-.11Z" transform="translate(-61.484 -115.753)" fill="#fff"/>
      <path id="Path_22883" data-name="Path 22883" d="M30.028,58.439l-4.107-3.333V47.635a.563.563,0,0,0-.169-.421.59.59,0,0,0-.431-.165h-3.6a.593.593,0,0,0-.432.165.564.564,0,0,0-.169.421v3.571L16.543,47.47a2.371,2.371,0,0,0-2.85,0L.208,58.439A.528.528,0,0,0,0,58.833a.583.583,0,0,0,.131.431L1.3,60.619a.645.645,0,0,0,.394.2.709.709,0,0,0,.45-.128L15.118,50.125,28.1,60.692a.587.587,0,0,0,.394.128h.056a.645.645,0,0,0,.394-.2L30.1,59.263a.583.583,0,0,0,.131-.431A.53.53,0,0,0,30.028,58.439Z" transform="translate(0.001 -46.994)" fill="#fff"/>
    </g>
  </g>
</svg>
