<svg xmlns="http://www.w3.org/2000/svg" width="60" height="60" viewBox="0 0 60 60">
  <g id="Group_1901" data-name="Group 1901" transform="translate(-193 -2564)">
    <circle id="Ellipse_13" data-name="Ellipse 13" cx="30" cy="30" r="30" transform="translate(193 2564)" fill="#ff5257"/>
    <path id="Path_22760" data-name="Path 22760" d="M27.067-27.435a7.917,7.917,0,0,1,2.519,3.75,8.53,8.53,0,0,1,.205,4.482,7.774,7.774,0,0,1-2.138,3.9L16.346-3.59A1.852,1.852,0,0,1,15-3a1.852,1.852,0,0,1-1.348-.586L2.343-15.249A8.118,8.118,0,0,1,.2-19.2,8.53,8.53,0,0,1,.41-23.686a7.917,7.917,0,0,1,2.519-3.75,7.413,7.413,0,0,1,3.574-1.7,7.891,7.891,0,0,1,3.925.293,8.3,8.3,0,0,1,3.4,2.168L15-25.5l1.172-1.172a8.3,8.3,0,0,1,3.4-2.168,7.891,7.891,0,0,1,3.925-.293A7.413,7.413,0,0,1,27.067-27.435Z" transform="translate(208.002 2612.008)" fill="#fff"/>
  </g>
</svg>
