<svg id="facial-treatment" xmlns="http://www.w3.org/2000/svg" width="23.855" height="23.857" viewBox="0 0 23.855 23.857">
  <path id="Path_22849" data-name="Path 22849" d="M43.29,1.109V.09a7.236,7.236,0,0,0-1.52.239l.451.909a7.916,7.916,0,0,1,1.069-.129Z" transform="translate(-31.788 -0.069)" fill="#fff"/>
  <path id="Path_22850" data-name="Path 22850" d="M34.519,3.11,34.1,2.28A7.2,7.2,0,0,0,32.77,3l.568.568a7.745,7.745,0,0,1,1.181-.453Z" transform="translate(-24.935 -1.736)" fill="#fff"/>
  <path id="Path_22851" data-name="Path 22851" d="M27.618,8.005l-.465-.465c-.119.1-.239.208-.355.322a7.184,7.184,0,0,0-.518.585l.32.32a7.827,7.827,0,0,1,1.016-.761Z" transform="translate(-19.994 -5.741)" fill="#fff"/>
  <path id="Path_22852" data-name="Path 22852" d="M53.242.349A7.277,7.277,0,0,0,51.72.11V1.136a7.966,7.966,0,0,1,1.069.131Z" transform="translate(-39.364 -0.084)" fill="#fff"/>
  <path id="Path_22853" data-name="Path 22853" d="M75.217,14.679c-.072-.134-.146-.262-.224-.389l-.212.212a3.345,3.345,0,0,1,.341.386c.033-.069.06-.141.1-.208Z" transform="translate(-56.923 -10.881)" fill="#fff"/>
  <path id="Path_22854" data-name="Path 22854" d="M61.509,3.026a7.172,7.172,0,0,0-1.334-.716l-.415.823a7.747,7.747,0,0,1,1.179.465Z" transform="translate(-45.486 -1.759)" fill="#fff"/>
  <path id="Path_22855" data-name="Path 22855" d="M69.278,8.427a7.2,7.2,0,0,0-.871-.907L67.93,8a7.914,7.914,0,0,1,1.016.761Z" transform="translate(-51.707 -5.726)" fill="#fff"/>
  <path id="Path_22856" data-name="Path 22856" d="M35.1,19.617a1.6,1.6,0,0,1-1.875-1.885l.282-1.408c-.239.014-.477.024-.716.024a11.481,11.481,0,0,1-1.959-.167l.146-.84a10.688,10.688,0,0,0,2.713.11l.2-.981v-.735a4.576,4.576,0,0,0-3.314-.348l-.21-.825A5.5,5.5,0,0,1,33.9,12.8a7.68,7.68,0,0,1,.344-1.873,6.961,6.961,0,0,0-.692-.845c-.06-.062-.112-.117-.169-.169A7.088,7.088,0,0,0,31.75,8.721a6.919,6.919,0,0,0-1.773-.663,7.172,7.172,0,0,0-3.268,0,6.919,6.919,0,0,0-1.775.663A7.074,7.074,0,0,0,23.3,9.914c-.043.038-.064.06-.086.081l-.074.079a7.133,7.133,0,0,0-.716.861,7.684,7.684,0,0,1,.344,1.873,5.487,5.487,0,0,1,3.536-.239l-.2.818a4.581,4.581,0,0,0-3.3.339v.735l.188.94a10.8,10.8,0,0,0,3.147-.069l.146.84a11.557,11.557,0,0,1-1.983.169c-.382,0-.759-.026-1.136-.062l.289,1.431A1.6,1.6,0,0,1,21.58,19.6c.334.613,1.379,2.527,1.994,3.645a1.51,1.51,0,0,1,.117,1.193c.074.088.146.179.224.262a5.914,5.914,0,0,0,2.011,1.462,5.981,5.981,0,0,0,4.834,0A5.909,5.909,0,0,0,32.767,24.7c.081-.088.153-.179.239-.27a1.5,1.5,0,0,1,.115-1.193c.616-1.119,1.67-3.032,1.994-3.645Zm-7.188-5.964h.852v4.7h-.852Zm2.4,7.219-.112-.045a5.2,5.2,0,0,0-3.719,0l-.112.045-.317-.792.112-.045a6.062,6.062,0,0,1,4.352,0l.112.045Z" transform="translate(-16.415 -5.992)" fill="#fff"/>
  <path id="Path_22857" data-name="Path 22857" d="M75.768,0V2.13a.427.427,0,0,1-.124.3,6.8,6.8,0,0,0-2.006,4.841V8.52a.436.436,0,0,1,0,.083l-.668,3.3a.749.749,0,0,0,1.453.344v-.017h0L75.78,7.966l.811.258-1.346,4.259L74.9,13.744a.43.43,0,0,1-.038.093s-1.36,2.5-2.109,3.843a.7.7,0,0,0,.716,1.009.651.651,0,0,0,.437-.293l3.18-4.948L79.111,7.37a1.281,1.281,0,0,0,.064-.4V0Z" transform="translate(-55.32)" fill="#fff"/>
  <path id="Path_22858" data-name="Path 22858" d="M23.677,14.492l-.212-.212c-.079.126-.153.258-.224.391.033.067.062.138.1.208C23.445,14.743,23.56,14.616,23.677,14.492Z" transform="translate(-17.679 -10.873)" fill="#fff"/>
  <path id="Path_22859" data-name="Path 22859" d="M41.558,86.5a6.915,6.915,0,0,1-.644.329,6.8,6.8,0,0,1-5.528,0,6.916,6.916,0,0,1-.647-.329v1.021a8.725,8.725,0,0,1-.279,2.2h7.379a8.725,8.725,0,0,1-.282-2.2Z" transform="translate(-26.222 -65.863)" fill="#fff"/>
  <path id="Path_22860" data-name="Path 22860" d="M4.241,13.837a.429.429,0,0,1-.038-.093L3.859,12.48,2.5,8.224l.811-.258,1.357,4.268h0v.017a.749.749,0,0,0,.919.525l.081-.026a.749.749,0,0,0,.456-.842L5.474,8.6a.437.437,0,0,1,0-.084V7.272A6.8,6.8,0,0,0,3.468,2.431a.427.427,0,0,1-.124-.3V0H-.07V6.966a1.272,1.272,0,0,0,.064.4L2.02,13.448,5.181,18.4a.651.651,0,0,0,.437.293.658.658,0,0,0,.511-.122.682.682,0,0,0,.215-.888C5.6,16.335,4.241,13.837,4.241,13.837Z" transform="translate(0.07)" fill="#fff"/>
</svg>
