<svg xmlns="http://www.w3.org/2000/svg" width="60" height="60" viewBox="0 0 60 60">
  <g id="Group_1930" data-name="Group 1930" transform="translate(-6429 -7927)">
    <g id="Group_1929" data-name="Group 1929" transform="translate(6236 5363)">
      <circle id="Ellipse_13" data-name="Ellipse 13" cx="30" cy="30" r="30" transform="translate(193 2564)" fill="#ffca28"/>
    </g>
    <path id="Path_22790" data-name="Path 22790" d="M14.776,1.555A1.782,1.782,0,0,1,15.8.617a2,2,0,0,1,1.348,0,1.782,1.782,0,0,1,1.025.937l3.809,7.734,8.555,1.23a1.778,1.778,0,0,1,1.2.7,1.957,1.957,0,0,1,.41,1.289,1.8,1.8,0,0,1-.557,1.23l-6.211,6.035,1.465,8.555a1.851,1.851,0,0,1-.264,1.318,1.72,1.72,0,0,1-1.084.791,1.807,1.807,0,0,1-1.348-.176l-7.676-3.984L8.8,30.266a1.807,1.807,0,0,1-1.348.176,1.72,1.72,0,0,1-1.084-.791A1.851,1.851,0,0,1,6.1,28.332l1.465-8.555L1.358,13.742A1.8,1.8,0,0,1,.8,12.512a1.957,1.957,0,0,1,.41-1.289,1.778,1.778,0,0,1,1.2-.7l8.555-1.23Z" transform="translate(6443 7942)" fill="#fff"/>
  </g>
</svg>
