<svg xmlns="http://www.w3.org/2000/svg" width="278" height="114.926" viewBox="0 0 278 114.926">
  <g id="Group_1922" data-name="Group 1922" transform="translate(-1254.657 -12274.371)">
    <g id="Group_1920" data-name="Group 1920" transform="translate(1254.657 12274.371)">
      <path id="Path_22772" data-name="Path 22772" d="M1689.3,1970.858c-2.755-.278-5.452-.473-8.308-.681-1.021-.074-2.07-.15-3.12-.23a2.822,2.822,0,0,1,.107-.511,29.877,29.877,0,0,0,1.425-5.493,11.192,11.192,0,0,0-.725-5.86c-.635-1.526-1.43-2.6-3.245-2.853-2-.283-2.572,1.174-2.99,2.238-.37.944-.767,1.9-1.152,2.825a66.47,66.47,0,0,0-2.514,6.732c-.995,3.4-2.537,4.61-5.691,4.478a76.05,76.05,0,0,0-9.243.364c-.744.06-1.512.122-2.267.176a2.443,2.443,0,0,0-1.433.87,1.222,1.222,0,0,0-.358.884,7.687,7.687,0,0,0,.99,3.663,7.048,7.048,0,0,0,6.087,3.072,10.459,10.459,0,0,0,1.214-.073c1.376-.16,2.753-.342,4.21-.535l1.168-.155-.038.105c-.214.588-.4,1.1-.587,1.6-.533,1.42-1.107,2.857-1.661,4.247-1.241,3.111-4.176,12.606-8.256,17.667-2.892,3.586-5.791,7.265-8.595,10.821-2.3,2.92-4.682,5.939-7.044,8.89a7.034,7.034,0,0,1-1.465,1.217l-.191.135q.005-.16.01-.31a16.281,16.281,0,0,1,.142-1.99,192.574,192.574,0,0,1,7.871-31.057l.064-.191a4.87,4.87,0,0,0-.068-4.405,5.477,5.477,0,0,0-3.935-3.129,4.249,4.249,0,0,0-3.689,1.5,42.652,42.652,0,0,0-4.613,6c-3.216,5.026-6.443,10.162-9.565,15.128-2.058,3.274-4.186,6.661-6.29,9.983a10.048,10.048,0,0,1-1.193,1.439q-.173.185-.348.375l-.126-.059c.349-1.307.674-2.638.99-3.928a77,77,0,0,1,2.8-9.615c1.52-3.9,3.352-7.769,5.123-11.508,1.023-2.16,2.081-4.391,3.069-6.612.328-.736.469-2.467-.283-3.089a6.334,6.334,0,0,0-4.355-1.11,5.928,5.928,0,0,0-4.145,1.756c-2.215,2.62-4.251,5.453-6.219,8.194l-.617.858c-3.667,5.1-7.385,10.286-10.981,15.3-3.969,5.538-8.072,11.266-12.122,16.888a7.483,7.483,0,0,1-1.252,1.24l-.286.245c.1-.5.19-1,.281-1.486.269-1.453.548-2.954.956-4.379.775-2.711,1.6-5.459,2.4-8.118,1.515-5.023,3.082-10.217,4.356-15.4a21.357,21.357,0,0,0-.074-9.608,8.264,8.264,0,0,0-5.247-5.667,8.1,8.1,0,0,0-7.538.652,47.644,47.644,0,0,0-6.942,6.341c-.35.365-.7.73-1.05,1.091a24.145,24.145,0,0,0-2.427,3.107c.29-1.619.564-3.15.721-4.677.234-2.279.164-5.551-3.134-7.648-1.182-.75-2.416-1.39-3.441-.985s-1.472,1.674-1.811,2.99c-.076.3-.148.6-.216.889s-.137.585-.211.872q-.914,3.535-1.829,7.07c-2.283,8.825-4.644,17.95-6.912,26.94a3.943,3.943,0,0,0,.556,3.053,11.712,11.712,0,0,0,2.229,2.006c.3.227.61.461.9.7a4.144,4.144,0,0,0,3.53.923,3.894,3.894,0,0,0,2.677-2.214c.643-1.353,1.278-2.813,2-4.6a96.415,96.415,0,0,1,16.748-26.827,16.583,16.583,0,0,1,1.9-1.786l.16-.135a8.752,8.752,0,0,1-.267,3.372c-1.18,4.016-2.446,8.083-3.67,12.016-.43,1.381-.875,2.808-1.309,4.214-1.523,4.926-2.971,10.2-2.5,15.782a9.14,9.14,0,0,0,3.325,6.245,6.583,6.583,0,0,0,4.107,1.537,5.7,5.7,0,0,0,.751-.05,12.011,12.011,0,0,0,6.714-3.56c2.882-3.138,5.549-6.555,8.127-9.861.992-1.272,2.018-2.587,3.041-3.867.244-.305.472-.611.747-.986.006.9.01,1.62-.013,2.328a7.69,7.69,0,0,0,1.627,5.269,11.721,11.721,0,0,0,4.364,3.169,8.335,8.335,0,0,0,3.519.839,8.122,8.122,0,0,0,5.782-2.7l.383-.382a37.354,37.354,0,0,0,3.5-3.836c1.389-1.84,2.706-3.759,4.1-5.79l.5-.729c-.076.917-.186,1.856-.293,2.765a33.257,33.257,0,0,0-.333,6.709,8.722,8.722,0,0,0,5.017,7.518,8.524,8.524,0,0,0,8.719-1.437,63.348,63.348,0,0,0,8.271-8.176c1.8-2.067,3.444-4.293,5.18-6.652.441-.6.889-1.207,1.35-1.827-.03.407-.059.807-.089,1.2-.161,2.149-.3,4.006-.308,5.913,0,.378-.01.771-.018,1.15-.057,2.573-.122,5.49,2.009,7.651a11.83,11.83,0,0,0,5.369,3.139,8.681,8.681,0,0,0,2.1.263,8.008,8.008,0,0,0,4.754-1.575c.91-.658,1.765-1.411,2.593-2.14a21.5,21.5,0,0,1,3.889-2.942c1.907-1.025,2.9-2.728,3.852-4.375s1.847-3.181,3.59-4.074c1.565-.8,2.626-2.473,3.651-4.09.354-.558.69-1.086,1.043-1.578,2.9-4.034,5.769-8.171,8.441-12.04,2.024-2.931,1.993-5.495-.095-7.838a.57.57,0,0,0-.844-.007c-.092.1-.189.2-.282.3-.211.22-.43.448-.63.7-1.538,1.943-3.086,3.929-4.583,5.851-3.39,4.352-6.9,8.851-10.51,13.128-2.88,3.407-6.1,6.639-9.219,9.763-.814.817-1.656,1.66-2.479,2.494a7.789,7.789,0,0,1-1.841,1.206c-.191.1-.393.213-.605.332,0-.168,0-.326-.005-.475-.008-.7-.014-1.212.016-1.7.486-8.254-2.073-7.05.981-17.153a27.712,27.712,0,0,1,1.262-3.178,22.743,22.743,0,0,0,1.525-4.121c.1-.438.19-.872.278-1.293.322-1.558,4.186-11.15,5.3-14.487.218-.654.444-1.33.67-1.992a1.9,1.9,0,0,1,2.059-1.568c4.291-.179,8.652-.409,12.87-.631q2.361-.125,4.724-.247a.57.57,0,0,0,.54-.58C1694.869,1972.712,1693.393,1971.271,1689.3,1970.858Z" transform="translate(-1419.304 -1955.195)" fill="#fff"/>
      <path id="Path_22773" data-name="Path 22773" d="M1525.937,1985.207l4.061-3.184a.569.569,0,0,0-.058-.937c-3.183-1.907-6.363-1.848-10,.188a25.815,25.815,0,0,0-9.946,10.45c-.908,1.631-1.685,3.365-2.438,5.04a45.282,45.282,0,0,1-3.537,6.817c-6.1,9.025-11.822,15.8-18.014,21.316-.158.142-.321.291-.479.435-1.607,1.475-2.863,2.46-4.4,1.7-1.767-.882-1.579-3.047-1.412-4.957l.018-.218c1.037-12.089,5.206-22.573,12.394-31.16a10.717,10.717,0,0,1,1.667-1.491l.367-.288c-.016.089-.03.178-.046.266-.11.644-.215,1.251-.379,1.845s-.364,1.19-.557,1.771a26.1,26.1,0,0,0-.766,2.591,3.823,3.823,0,0,0,.352,2.892,2.835,2.835,0,0,0,1.849,1.221,11.611,11.611,0,0,0,2.417.227c1.191-.02,1.82-.247,2.039-.738a48.824,48.824,0,0,0,3.24-9.646c.492-2.291-.785-4.382-3.332-5.457-.485-.2-.978-.42-1.454-.628a36.758,36.758,0,0,0-5.339-2.007,5.91,5.91,0,0,0-4.227.652,24.093,24.093,0,0,0-3.282,2.626c-.591.532-1.2,1.082-1.823,1.578a4.633,4.633,0,0,1-2.013,1.115c-5.323.63-10.614,1.125-15.089,1.526a2.336,2.336,0,0,1-1.447-.375c-.9-.681-1.756-1.446-2.66-2.256q-.313-.28-.639-.57l3.747-2.9a.571.571,0,0,0,.2-.617l-.195-.636a.569.569,0,0,0-.458-.4c-.346-.054-.689-.124-1.053-.2a10.319,10.319,0,0,0-2.5-.3,13.3,13.3,0,0,0-4.981,1.175,13.01,13.01,0,0,0-4.091,2.94,55.394,55.394,0,0,0-7.784,9.8,144.113,144.113,0,0,1-20.32,26.984,52.756,52.756,0,0,1-9.27,7.323,2.9,2.9,0,0,1-2.659.552,3.1,3.1,0,0,1-1.578-2.382,21.614,21.614,0,0,1-.373-6.77c.9-8.291,4.231-15.676,7.037-21.182.3-.593.566-1.216.822-1.818a13.114,13.114,0,0,1,1.7-3.185,50.058,50.058,0,0,1,4.51-4.662c.52-.493,1.058-1,1.581-1.512a2.208,2.208,0,0,1,.564-.341h0a7.552,7.552,0,0,1-.248,1.4c-.367,1.135-.769,2.283-1.157,3.393-.4,1.131-.8,2.3-1.18,3.463a4,4,0,0,0,2.641,5.206c1.5.513,3.552.524,4.8-2.347.393-.9.816-1.81,1.226-2.688.532-1.141,1.081-2.32,1.575-3.506a8.775,8.775,0,0,0,.679-4.83,5.474,5.474,0,0,0-2.33-3.689,33.239,33.239,0,0,0-7.086-3.751,6.725,6.725,0,0,0-4.761.35,16.358,16.358,0,0,0-4.877,3.6,63.385,63.385,0,0,0-9.529,13.23,60.546,60.546,0,0,0-5.682,15.289,30.814,30.814,0,0,0-.88,8.888,18.45,18.45,0,0,0,2.706,8.66,11.668,11.668,0,0,0,12.526,5.275c6.146-1.4,10.586-5.434,14.119-9.194,2.01-2.138,3.887-4.376,5.873-6.744q.809-.966,1.652-1.966c-.091,1.122-.169,2.091-.257,3.075a8.917,8.917,0,0,0,3.39,8.269,8.221,8.221,0,0,0,4.125,1.521,10.156,10.156,0,0,0,4.873-.836,23.14,23.14,0,0,0,9.3-7.517,49.822,49.822,0,0,0,7.326-12.6,34.565,34.565,0,0,0,2.336-14.062l10.113-1.727c-.265.47-.479.853-.693,1.241a61.582,61.582,0,0,0-5.3,12.263,37.252,37.252,0,0,0-1.549,13.3c.242,3.465.515,7.392,4.836,9.982a14.265,14.265,0,0,0,9.508,2.221,11.319,11.319,0,0,0,4.38-1.688,14.821,14.821,0,0,0,3.8-3.623,1.831,1.831,0,0,1,.359-.31,3.961,3.961,0,0,0,.406-.33c.568-.55,1.151-1.105,1.715-1.642,1.494-1.423,3.039-2.895,4.481-4.425a21.765,21.765,0,0,0,2.066-2.726c.071-.105.142-.21.215-.316.016.278.031.549.046.818a29.368,29.368,0,0,0,.4,4.032,8.08,8.08,0,0,0,1.422,3.413,5.956,5.956,0,0,0,3.219,2.137,10,10,0,0,0,2.722.354,16.122,16.122,0,0,0,7.021-1.789c3.407-1.688,5.993-4.192,7.093-6.869a18.6,18.6,0,0,1,2.677-4.97,24.482,24.482,0,0,0,5.117-11.43,22.177,22.177,0,0,0,.078-9.965A15.144,15.144,0,0,0,1525.937,1985.207Zm-3.823,13.467c-1.41,7.395-4.831,14.342-10.722,21.739,1.089-9.1,4.286-18.358,9.971-28.9C1523,1994.026,1522.552,1996.385,1522.115,1998.674Zm-64.089-2.874a44.161,44.161,0,0,1-12.325,25.475c1.139-7.966,4.243-15.411,7.25-22.625.485-1.163.984-2.361,1.471-3.551Z" transform="translate(-1399.046 -1958.411)" fill="#fff"/>
    </g>
    <g id="Group_1921" data-name="Group 1921" transform="translate(1254.658 12367.246)">
      <path id="Path_22774" data-name="Path 22774" d="M1410.9,2064.016h-10.233v8.55h9.866v1.528h-9.866v9.773h-1.618v-21.38H1410.9Z" transform="translate(-1399.046 -2062.152)" fill="#fff"/>
      <path id="Path_22775" data-name="Path 22775" d="M1434.693,2080.931a11.1,11.1,0,1,1,3.206-7.8A10.613,10.613,0,0,1,1434.693,2080.931Zm-14.49-1.1a9.437,9.437,0,0,0,13.344,0,9.583,9.583,0,0,0,0-13.407,9.434,9.434,0,0,0-13.344,0,9.585,9.585,0,0,0,0,13.407Z" transform="translate(-1401.252 -2062.101)" fill="#fff"/>
      <path id="Path_22776" data-name="Path 22776" d="M1459.442,2083.868l-5.152-8.766h-6.728v8.766h-1.619v-21.38h8.431a6.3,6.3,0,0,1,4.993,10.17,6.266,6.266,0,0,1-3.375,2.229l5.314,8.98Zm-11.88-19.852v9.559h6.813a4.5,4.5,0,0,0,3.327-1.389,4.616,4.616,0,0,0,1.375-3.375,4.669,4.669,0,0,0-1.375-3.39,4.48,4.48,0,0,0-3.327-1.4Z" transform="translate(-1405.201 -2062.152)" fill="#fff"/>
      <path id="Path_22777" data-name="Path 22777" d="M1478.5,2082.342h10.079v1.526h-11.7v-21.38h1.618Z" transform="translate(-1409.261 -2062.152)" fill="#fff"/>
      <path id="Path_22778" data-name="Path 22778" d="M1494.211,2062.488h1.618v21.38h-1.618Z" transform="translate(-1411.536 -2062.152)" fill="#fff"/>
      <path id="Path_22779" data-name="Path 22779" d="M1514.041,2064.016h-10.232v8.55h9.865v1.528h-9.865v9.773h-1.619v-21.38h11.851Z" transform="translate(-1412.584 -2062.152)" fill="#fff"/>
      <path id="Path_22780" data-name="Path 22780" d="M1522.018,2082.342h10.69v1.526H1520.4v-21.38h12.156v1.528h-10.538v8.307h9.773v1.528h-9.773Z" transform="translate(-1414.974 -2062.152)" fill="#fff"/>
    </g>
  </g>
</svg>
