<svg xmlns="http://www.w3.org/2000/svg" width="325" height="124.2" viewBox="0 0 325 124.2">
  <g id="Group_2020" data-name="Group 2020" transform="translate(-866.647 -473.628)">
    <g id="Group_2015" data-name="Group 2015" transform="translate(866.647 473.628)">
      <path id="Path_22826" data-name="Path 22826" d="M1179.88,491.94c-3.221-.325-6.375-.553-9.714-.8-1.193-.086-2.42-.176-3.647-.269a3.369,3.369,0,0,1,.125-.6,34.834,34.834,0,0,0,1.666-6.422,13.082,13.082,0,0,0-.846-6.85c-.742-1.784-1.672-3.035-3.794-3.335-2.338-.332-3.007,1.372-3.495,2.616-.433,1.1-.9,2.222-1.347,3.3a77.386,77.386,0,0,0-2.94,7.87c-1.162,3.971-2.966,5.389-6.653,5.233a89.1,89.1,0,0,0-10.805.427c-.87.07-1.768.142-2.65.206a2.857,2.857,0,0,0-1.676,1.018,1.431,1.431,0,0,0-.418,1.033,9,9,0,0,0,1.158,4.282,8.241,8.241,0,0,0,7.116,3.591,12.252,12.252,0,0,0,1.421-.085c1.609-.187,3.217-.4,4.921-.626l1.365-.181-.045.123c-.25.688-.465,1.281-.685,1.868-.624,1.66-1.293,3.34-1.942,4.965-1.45,3.637-4.881,14.738-9.652,20.654-3.381,4.193-6.77,8.493-10.048,12.651-2.69,3.414-5.473,6.943-8.234,10.392a8.23,8.23,0,0,1-1.713,1.424l-.223.158q.006-.187.012-.363a19.062,19.062,0,0,1,.166-2.327,225.209,225.209,0,0,1,9.2-36.307l.076-.223c.53-1.565,1.031-3.043-.08-5.15a6.4,6.4,0,0,0-4.6-3.658,4.966,4.966,0,0,0-4.313,1.749,49.936,49.936,0,0,0-5.393,7.014c-3.759,5.875-7.533,11.88-11.182,17.686-2.405,3.828-4.893,7.787-7.353,11.671a11.868,11.868,0,0,1-1.395,1.682c-.134.144-.271.291-.407.439l-.147-.069c.408-1.53.788-3.083,1.158-4.592a90.012,90.012,0,0,1,3.272-11.24c1.777-4.562,3.919-9.083,5.99-13.455,1.2-2.524,2.432-5.133,3.587-7.729.384-.86.549-2.884-.33-3.612a7.407,7.407,0,0,0-5.092-1.3,6.925,6.925,0,0,0-4.844,2.053c-2.591,3.063-4.969,6.375-7.271,9.578q-.36.5-.721,1c-4.287,5.959-8.634,12.025-12.838,17.891-4.639,6.475-9.437,13.171-14.171,19.744a8.724,8.724,0,0,1-1.464,1.449l-.334.286c.115-.582.223-1.167.329-1.737.315-1.7.641-3.453,1.117-5.119.906-3.17,1.875-6.383,2.811-9.49,1.771-5.872,3.6-11.945,5.092-18a24.983,24.983,0,0,0-.085-11.233,9.663,9.663,0,0,0-6.135-6.625,9.47,9.47,0,0,0-8.812.761,55.769,55.769,0,0,0-8.117,7.414q-.614.64-1.228,1.276a28.2,28.2,0,0,0-2.838,3.633c.34-1.893.66-3.683.843-5.468.274-2.664.192-6.49-3.663-8.941-1.381-.878-2.824-1.625-4.023-1.152s-1.719,1.957-2.117,3.495c-.089.348-.172.7-.252,1.04s-.16.683-.248,1.02q-1.068,4.133-2.137,8.265c-2.67,10.317-5.43,20.985-8.081,31.495a4.614,4.614,0,0,0,.65,3.569,13.689,13.689,0,0,0,2.606,2.345c.351.265.714.539,1.051.816a4.843,4.843,0,0,0,4.125,1.08,4.554,4.554,0,0,0,3.131-2.589c.751-1.581,1.493-3.289,2.336-5.374a112.719,112.719,0,0,1,19.579-31.362,19.362,19.362,0,0,1,2.221-2.088l.187-.158a10.186,10.186,0,0,1-.312,3.942c-1.379,4.7-2.859,9.45-4.291,14.047-.5,1.615-1.023,3.284-1.531,4.927-1.78,5.759-3.473,11.926-2.923,18.45a10.689,10.689,0,0,0,3.887,7.3,7.7,7.7,0,0,0,4.8,1.8,6.675,6.675,0,0,0,.876-.058,14.047,14.047,0,0,0,7.849-4.162c3.37-3.668,6.487-7.664,9.5-11.528,1.16-1.487,2.359-3.025,3.555-4.521.285-.356.552-.714.873-1.153.007,1.055.013,1.894-.015,2.722a8.991,8.991,0,0,0,1.9,6.16,13.7,13.7,0,0,0,5.1,3.7,9.721,9.721,0,0,0,4.113.98,9.49,9.49,0,0,0,6.76-3.161l.449-.447a43.669,43.669,0,0,0,4.094-4.486c1.624-2.151,3.164-4.394,4.795-6.768l.585-.852c-.088,1.071-.217,2.169-.342,3.233a39.021,39.021,0,0,0-.389,7.844,10.2,10.2,0,0,0,5.865,8.789,9.966,9.966,0,0,0,10.193-1.68,74.132,74.132,0,0,0,9.671-9.558c2.107-2.416,4.026-5.019,6.056-7.777q.771-1.048,1.577-2.136c-.035.476-.069.944-.1,1.4-.188,2.513-.349,4.683-.359,6.912,0,.442-.011.9-.021,1.345-.067,3.008-.143,6.418,2.35,8.945a13.812,13.812,0,0,0,6.276,3.668,10.152,10.152,0,0,0,2.454.309,9.36,9.36,0,0,0,5.557-1.841c1.063-.77,2.064-1.649,3.032-2.5a25.173,25.173,0,0,1,4.546-3.44c2.229-1.2,3.386-3.189,4.5-5.115s2.159-3.718,4.2-4.762c1.83-.937,3.07-2.892,4.27-4.782.414-.653.805-1.27,1.219-1.845,3.386-4.717,6.744-9.552,9.868-14.076,2.366-3.427,2.331-6.424-.11-9.163a.668.668,0,0,0-.492-.222.66.66,0,0,0-.495.214c-.108.118-.221.236-.331.349-.247.258-.5.525-.735.82-1.8,2.271-3.608,4.594-5.357,6.84-3.964,5.087-8.061,10.347-12.287,15.347-3.368,3.983-7.135,7.76-10.779,11.414-.952.955-1.935,1.941-2.9,2.916a9.075,9.075,0,0,1-2.152,1.41c-.222.121-.459.249-.708.387,0-.2,0-.38-.006-.556-.009-.822-.015-1.417.018-1.991.568-9.649-2.423-8.242,1.147-20.053a32.376,32.376,0,0,1,1.476-3.715,26.671,26.671,0,0,0,1.783-4.818c.117-.512.223-1.021.324-1.512.377-1.82,4.894-13.034,6.2-16.937.256-.764.52-1.554.783-2.328a2.221,2.221,0,0,1,2.407-1.833c5.016-.209,10.116-.478,15.047-.738q2.76-.145,5.523-.287a.666.666,0,0,0,.632-.678C1186.389,494.106,1184.663,492.422,1179.88,491.94Z" transform="translate(-864.236 -473.628)" fill="#fff"/>
      <path id="Path_22827" data-name="Path 22827" d="M1014.991,504.571l4.749-3.723a.665.665,0,0,0-.069-1.094c-3.721-2.229-7.437-2.16-11.7.219a30.177,30.177,0,0,0-11.628,12.217c-1.06,1.907-1.97,3.934-2.85,5.892a52.854,52.854,0,0,1-4.135,7.97c-7.129,10.55-13.821,18.468-21.059,24.919-.185.164-.375.34-.56.509-1.879,1.725-3.348,2.876-5.141,1.983-2.066-1.031-1.845-3.562-1.65-5.8l.022-.255c1.212-14.132,6.087-26.389,14.488-36.428a12.537,12.537,0,0,1,1.949-1.743c.142-.111.286-.223.43-.337-.017.1-.036.208-.053.311-.13.753-.252,1.463-.444,2.157s-.425,1.391-.651,2.07a30.27,30.27,0,0,0-.895,3.029,4.47,4.47,0,0,0,.41,3.381,3.314,3.314,0,0,0,2.162,1.428,13.565,13.565,0,0,0,2.825.265c1.391-.023,2.127-.289,2.384-.862a57.09,57.09,0,0,0,3.786-11.277c.575-2.678-.917-5.123-3.895-6.379-.567-.24-1.143-.491-1.7-.734a42.987,42.987,0,0,0-6.241-2.346,6.909,6.909,0,0,0-4.942.763,28.241,28.241,0,0,0-3.837,3.07c-.691.622-1.4,1.265-2.131,1.844a5.416,5.416,0,0,1-2.353,1.3c-6.223.736-12.409,1.315-17.639,1.784a2.732,2.732,0,0,1-1.692-.439c-1.054-.8-2.053-1.691-3.11-2.638l-.745-.666,4.379-3.387a.664.664,0,0,0,.23-.721l-.227-.743a.664.664,0,0,0-.535-.462c-.4-.063-.805-.145-1.231-.233a12.1,12.1,0,0,0-2.918-.352,15.536,15.536,0,0,0-5.822,1.374,15.213,15.213,0,0,0-4.784,3.437,64.735,64.735,0,0,0-9.1,11.46,168.469,168.469,0,0,1-23.755,31.546,61.668,61.668,0,0,1-10.836,8.561,3.385,3.385,0,0,1-3.109.645,3.619,3.619,0,0,1-1.845-2.785,25.266,25.266,0,0,1-.437-7.915c1.048-9.693,4.947-18.326,8.227-24.763.353-.694.662-1.422.961-2.126a15.362,15.362,0,0,1,1.985-3.723,58.279,58.279,0,0,1,5.271-5.45c.608-.577,1.238-1.173,1.848-1.768a2.592,2.592,0,0,1,.66-.4h0a8.847,8.847,0,0,1-.288,1.634c-.43,1.326-.9,2.669-1.353,3.967-.463,1.322-.94,2.689-1.38,4.048a4.673,4.673,0,0,0,3.089,6.086c1.753.6,4.151.612,5.614-2.743.458-1.052.954-2.116,1.432-3.142.622-1.333,1.263-2.713,1.841-4.1a10.26,10.26,0,0,0,.794-5.647,6.4,6.4,0,0,0-2.724-4.312,38.833,38.833,0,0,0-8.284-4.385,7.862,7.862,0,0,0-5.566.409,19.106,19.106,0,0,0-5.7,4.209,74.082,74.082,0,0,0-11.141,15.467,70.817,70.817,0,0,0-6.642,17.874A36.02,36.02,0,0,0,866.7,546.92a21.57,21.57,0,0,0,3.163,10.124,13.634,13.634,0,0,0,14.644,6.166c7.185-1.638,12.375-6.352,16.507-10.747,2.349-2.5,4.543-5.116,6.865-7.885q.946-1.127,1.932-2.3c-.106,1.311-.2,2.444-.3,3.594-.359,4.046,1.085,7.569,3.964,9.666a9.6,9.6,0,0,0,4.822,1.779,11.873,11.873,0,0,0,5.7-.977,27.055,27.055,0,0,0,10.87-8.788,58.215,58.215,0,0,0,8.565-14.731,40.406,40.406,0,0,0,2.731-16.44l11.823-2.019c-.309.549-.561,1-.81,1.451a71.991,71.991,0,0,0-6.2,14.336,43.527,43.527,0,0,0-1.811,15.551c.281,4.05.6,8.642,5.652,11.669a16.679,16.679,0,0,0,11.115,2.6A13.242,13.242,0,0,0,971.056,558a17.329,17.329,0,0,0,4.44-4.235,2.151,2.151,0,0,1,.42-.363,4.644,4.644,0,0,0,.473-.386c.664-.643,1.346-1.292,2-1.92,1.747-1.664,3.553-3.384,5.24-5.174a25.569,25.569,0,0,0,2.414-3.187c.083-.123.167-.246.252-.37.019.325.036.642.054.956a34.308,34.308,0,0,0,.467,4.714,9.457,9.457,0,0,0,1.663,3.99,6.969,6.969,0,0,0,3.763,2.5,11.732,11.732,0,0,0,3.182.414,18.848,18.848,0,0,0,8.208-2.091c3.984-1.973,7.006-4.9,8.291-8.031a21.774,21.774,0,0,1,3.129-5.81c2.943-3.479,4.844-7.725,5.983-13.363a25.941,25.941,0,0,0,.091-11.649A17.711,17.711,0,0,0,1014.991,504.571Zm-4.468,15.743c-1.649,8.646-5.649,16.768-12.536,25.415,1.273-10.637,5.011-21.461,11.657-33.789C1011.559,514.881,1011.033,517.639,1010.523,520.314ZM935.6,516.956a51.632,51.632,0,0,1-14.41,29.782c1.333-9.312,4.96-18.016,8.476-26.45.567-1.36,1.151-2.76,1.72-4.151Z" transform="translate(-866.647 -473.245)" fill="#fff"/>
    </g>
    <g id="Group_2019" data-name="Group 2019" transform="translate(866.647 572.048)">
      <g id="Group_2016" data-name="Group 2016" transform="translate(93.68)">
        <path id="Path_22828" data-name="Path 22828" d="M972.74,572.708H960.778v10h11.532v1.786H960.778v11.426h-1.892V570.921H972.74Z" transform="translate(-958.886 -570.528)" fill="#fff"/>
        <path id="Path_22829" data-name="Path 22829" d="M997.72,592.548a12.976,12.976,0,1,1,3.748-9.123A12.41,12.41,0,0,1,997.72,592.548Zm-16.941-1.287a11.033,11.033,0,0,0,15.6,0,11.205,11.205,0,0,0,0-15.673,11.03,11.03,0,0,0-15.6,0,11.205,11.205,0,0,0,0,15.673Z" transform="translate(-958.624 -570.534)" fill="#fff"/>
        <path id="Path_22830" data-name="Path 22830" d="M1021.564,595.916l-6.023-10.249h-7.866v10.249h-1.892V570.921h9.857a7.368,7.368,0,0,1,5.838,11.89,7.339,7.339,0,0,1-3.947,2.606l6.213,10.5Zm-13.889-23.208v11.175h7.964a5.27,5.27,0,0,0,3.891-1.624,5.4,5.4,0,0,0,1.607-3.946,5.462,5.462,0,0,0-1.607-3.963,5.241,5.241,0,0,0-3.891-1.642Z" transform="translate(-958.153 -570.528)" fill="#fff"/>
        <path id="Path_22831" data-name="Path 22831" d="M1038.611,594.131h11.782v1.784h-13.674V570.921h1.892Z" transform="translate(-957.67 -570.528)" fill="#fff"/>
        <path id="Path_22832" data-name="Path 22832" d="M1054.051,570.921h1.892v24.994h-1.892Z" transform="translate(-957.399 -570.528)" fill="#fff"/>
        <path id="Path_22833" data-name="Path 22833" d="M1075.885,572.708h-11.963v10h11.532v1.786h-11.532v11.426h-1.892V570.921h13.855Z" transform="translate(-957.275 -570.528)" fill="#fff"/>
        <path id="Path_22834" data-name="Path 22834" d="M1082.132,594.131h12.5v1.784h-14.388V570.921h14.212v1.786h-12.321v9.71h11.425v1.787h-11.425Z" transform="translate(-956.99 -570.528)" fill="#fff"/>
      </g>
      <g id="Group_2017" data-name="Group 2017" transform="translate(0 11.728)">
        <path id="Path_22835" data-name="Path 22835" d="M925.6,582.082c-.008.045.248.09-.15.111-1.254.043-2.263-.109-3.518-.066-.028.024-.06.049-.09.073-.971-.03-1.982-.071-3.014-.106q-2.853.015-5.679.052c.05.027.073.052-.115.061-.784.02-1.87-.006-2.994-.013l-.5.012a.336.336,0,0,0-.182.057c-.508,0-.961-.009-1.379-.017-5.521.144-11.127.313-17.2.479-1.285.067-2.57.134-3.809.166-1.834.027-4.175-.02-5.964-.028.274.258-4.086.384-3.216.644a29.51,29.51,0,0,0-3.074.059c-.277.218-1.194.47-4.361.6-1.239.03-3.141-.062-3.579-.017-.688.07,1.607.154.919.224,9.209.078,18.077-.016,27.35-.014,3.156-.114,24.446-.165,29.914-.114l.5,0c2.983.014,6.606-.005,9.13-.1,1.158-.061,2.335-.134,3.508-.205-.545-.043-1.05-.085-1.488-.127,1.193.006,2.387.011,2.845-.036,2.541-.11,1.1-.239.124-.414-.7-.076.248-.194-.853-.272l1.988.009c.091-.073-2.449.038-1.9-.082.765.028,1.621-.016,2.415-.013-.274-.1-2.752-.037-2.629-.134a19.412,19.412,0,0,0,2.386.011c.03-.024-.765-.029-1.162-.031,2.447-.037,3.8-.152,1.561-.285.776,0,1.873.056,2.692.039l-.006,0c-.409,0-1.115-.028-1.493-.03l1.4.006c-.073-.017-.156-.034-.244-.051-.348-.014-.7-.026-1.06-.028l.928,0c-.232-.04-.5-.077-.79-.113-1.1-.079-2.157-.194-2.753-.2C935.243,582.131,930.41,582.09,925.6,582.082Z" transform="translate(-866.647 -582.082)" fill="#fff"/>
      </g>
      <g id="Group_2018" data-name="Group 2018" transform="translate(247.569 11.728)">
        <path id="Path_22836" data-name="Path 22836" d="M1128.884,584.406c.009-.046-.248-.09.151-.112,1.254-.043,2.262.109,3.517.066.028-.024.06-.049.09-.073.971.031,1.982.072,3.015.106q2.853-.015,5.678-.052c-.05-.026-.072-.051.115-.061.784-.019,1.87.006,2.994.013l.5-.012a.332.332,0,0,0,.182-.057c.508,0,.961.009,1.379.017,5.521-.144,11.128-.313,17.2-.479,1.285-.067,2.571-.134,3.809-.165,1.834-.028,4.175.019,5.964.027-.274-.257,4.086-.383,3.215-.644a29.181,29.181,0,0,0,3.074-.059c.277-.218,1.194-.47,4.361-.6,1.239-.031,3.142.061,3.579.016.688-.07-1.607-.153-.919-.224-9.209-.079-18.077.015-27.35.013-3.157.115-24.446.165-29.914.114l-.5,0c-2.983-.014-6.605.006-9.13.1-1.158.061-2.335.134-3.508.205.545.043,1.05.085,1.488.127-1.193-.005-2.387-.011-2.845.036-2.541.111-1.1.239-.124.414.7.077-.248.194.853.273l-1.988-.01c-.091.073,2.449-.037,1.9.082-.765-.027-1.621.017-2.415.013.275.1,2.752.038,2.63.134a19.6,19.6,0,0,0-2.387-.011c-.031.024.765.028,1.162.03-2.447.038-3.8.153-1.561.285-.776,0-1.872-.055-2.692-.039l.006,0c.409,0,1.115.029,1.493.031l-1.4-.006c.073.017.156.034.245.051.347.015.7.026,1.059.028l-.927,0c.232.04.5.078.789.114,1.1.078,2.157.193,2.753.2C1119.242,584.357,1124.075,584.4,1128.884,584.406Z" transform="translate(-1110.408 -582.082)" fill="#fff"/>
      </g>
    </g>
  </g>
</svg>
