<svg xmlns="http://www.w3.org/2000/svg" xmlns:xlink="http://www.w3.org/1999/xlink" width="175" height="87" viewBox="0 0 175 87">
  <defs>
    <linearGradient id="linear-gradient" x1="0.501" y1="0.497" x2="0.499" y2="0.83" gradientUnits="objectBoundingBox">
      <stop offset="0" stop-color="#50bfbf"/>
      <stop offset="1" stop-color="#1da776"/>
    </linearGradient>
    <linearGradient id="linear-gradient-2" x1="0.502" y1="0.181" x2="0.499" y2="0.699" xlink:href="#linear-gradient"/>
  </defs>
  <g id="Group_1707" data-name="Group 1707" transform="translate(-828.137 -378.548)">
    <g id="Group_61" data-name="Group 61" transform="translate(828.137 384.611)">
      <g id="Group_57" data-name="Group 57">
        <g id="Group_56" data-name="Group 56">
          <path id="Path_176" data-name="Path 176" d="M1106.627,402.909c-1.734-.175-3.432-.3-5.23-.428-.643-.047-1.3-.095-1.964-.145a1.79,1.79,0,0,1,.067-.322,18.835,18.835,0,0,0,.9-3.458,7.05,7.05,0,0,0-.456-3.689,2.466,2.466,0,0,0-2.043-1.8c-1.259-.179-1.619.739-1.882,1.409-.233.594-.483,1.2-.725,1.779a41.562,41.562,0,0,0-1.583,4.238c-.626,2.138-1.6,2.9-3.583,2.818a47.911,47.911,0,0,0-5.818.23c-.468.038-.952.076-1.426.111a1.538,1.538,0,0,0-.9.548.773.773,0,0,0-.226.556,4.847,4.847,0,0,0,.624,2.306,4.436,4.436,0,0,0,3.832,1.934,6.6,6.6,0,0,0,.765-.046c.866-.1,1.732-.216,2.65-.337l.735-.1-.024.066c-.135.37-.25.689-.37,1.005-.335.894-.7,1.8-1.045,2.674-.781,1.958-2.629,7.935-5.2,11.121-1.82,2.258-3.645,4.573-5.41,6.811-1.449,1.838-2.947,3.739-4.434,5.6a4.426,4.426,0,0,1-.922.766l-.12.085c0-.067,0-.132.007-.2a10.29,10.29,0,0,1,.089-1.253,121.256,121.256,0,0,1,4.955-19.55l.041-.12a3.064,3.064,0,0,0-.043-2.774,3.447,3.447,0,0,0-2.476-1.97,2.673,2.673,0,0,0-2.322.941,26.85,26.85,0,0,0-2.9,3.776c-2.024,3.164-4.056,6.4-6.021,9.523-1.3,2.061-2.635,4.193-3.959,6.284a6.343,6.343,0,0,1-.751.906c-.073.077-.146.156-.219.237l-.079-.037c.22-.824.424-1.661.623-2.473a48.373,48.373,0,0,1,1.762-6.052c.957-2.456,2.11-4.89,3.225-7.245.644-1.359,1.309-2.765,1.932-4.162.206-.463.3-1.553-.178-1.944a3.985,3.985,0,0,0-2.742-.7,3.731,3.731,0,0,0-2.608,1.106c-1.4,1.649-2.676,3.433-3.915,5.158l-.388.54c-2.309,3.208-4.649,6.475-6.913,9.634-2.5,3.486-5.081,7.092-7.63,10.631a4.711,4.711,0,0,1-.788.78l-.18.154c.062-.314.12-.629.177-.935.17-.914.345-1.86.6-2.757.488-1.707,1.009-3.437,1.514-5.11.954-3.162,1.94-6.432,2.742-9.694a13.447,13.447,0,0,0-.046-6.048,5.2,5.2,0,0,0-3.3-3.567,5.1,5.1,0,0,0-4.745.41,30.018,30.018,0,0,0-4.371,3.992q-.331.345-.661.686a15.3,15.3,0,0,0-1.528,1.956c.183-1.019.355-1.983.454-2.944a4.649,4.649,0,0,0-1.973-4.814,2.62,2.62,0,0,0-2.166-.62c-.64.253-.926,1.054-1.14,1.882-.048.187-.093.376-.135.56s-.087.368-.134.549q-.575,2.225-1.151,4.451c-1.437,5.555-2.923,11.3-4.351,16.958a2.485,2.485,0,0,0,.35,1.922,7.353,7.353,0,0,0,1.4,1.263c.189.143.385.29.566.439a2.611,2.611,0,0,0,2.222.581,2.449,2.449,0,0,0,1.685-1.394c.4-.851.8-1.771,1.258-2.894a60.689,60.689,0,0,1,10.543-16.887,10.43,10.43,0,0,1,1.2-1.124l.1-.085a5.5,5.5,0,0,1-.167,2.123c-.743,2.528-1.54,5.088-2.311,7.564-.27.869-.55,1.768-.824,2.653a26.088,26.088,0,0,0-1.574,9.934,5.751,5.751,0,0,0,2.093,3.931,4.145,4.145,0,0,0,2.585.968,3.56,3.56,0,0,0,.472-.031,7.561,7.561,0,0,0,4.226-2.241c1.814-1.975,3.493-4.127,5.116-6.208.625-.8,1.271-1.629,1.915-2.434.153-.192.3-.385.47-.621,0,.568.007,1.02-.008,1.466a4.842,4.842,0,0,0,1.024,3.317,7.369,7.369,0,0,0,2.748,1.995,5.243,5.243,0,0,0,2.215.528,5.111,5.111,0,0,0,3.64-1.7l.241-.241a23.463,23.463,0,0,0,2.2-2.415c.875-1.159,1.7-2.366,2.582-3.645l.315-.459c-.047.577-.117,1.169-.184,1.741a20.991,20.991,0,0,0-.209,4.224,5.49,5.49,0,0,0,3.158,4.732,5.365,5.365,0,0,0,5.488-.9,39.844,39.844,0,0,0,5.207-5.147c1.135-1.3,2.168-2.7,3.261-4.187q.416-.564.85-1.15c-.019.257-.038.508-.056.756-.1,1.353-.189,2.522-.193,3.722,0,.238-.007.485-.012.724-.036,1.62-.077,3.456,1.265,4.816a7.443,7.443,0,0,0,3.38,1.976,5.478,5.478,0,0,0,1.321.166,5.043,5.043,0,0,0,2.992-.991c.572-.414,1.111-.889,1.632-1.347a13.512,13.512,0,0,1,2.448-1.853,6.467,6.467,0,0,0,2.425-2.754,5.823,5.823,0,0,1,2.26-2.565,6.782,6.782,0,0,0,2.3-2.574c.223-.352.434-.684.656-.994,1.823-2.54,3.631-5.143,5.313-7.579,1.274-1.845,1.255-3.459-.059-4.934a.359.359,0,0,0-.531,0c-.058.063-.119.127-.178.188-.133.139-.271.283-.4.441-.968,1.223-1.943,2.474-2.885,3.683-2.134,2.739-4.34,5.572-6.616,8.264-1.813,2.145-3.842,4.179-5.8,6.146-.513.514-1.042,1.045-1.561,1.57a4.908,4.908,0,0,1-1.158.759c-.12.065-.248.134-.382.209,0-.105,0-.2,0-.3,0-.443-.009-.763.01-1.072.306-5.2-1.3-4.438.618-10.8a17.431,17.431,0,0,1,.794-2,14.289,14.289,0,0,0,.96-2.595c.063-.275.12-.549.175-.814.2-.98,2.635-7.018,3.337-9.12.137-.412.279-.837.421-1.253a1.2,1.2,0,0,1,1.3-.987c2.7-.113,5.447-.257,8.1-.4q1.487-.078,2.974-.155a.358.358,0,0,0,.34-.365C1110.132,404.075,1109.2,403.168,1106.627,402.909Z" transform="translate(-936.665 -393.048)" fill="url(#linear-gradient)"/>
          <path id="Path_177" data-name="Path 177" d="M908.015,427.147l2.557-2a.359.359,0,0,0-.037-.589,5.8,5.8,0,0,0-6.3.118,16.248,16.248,0,0,0-6.261,6.579c-.571,1.027-1.061,2.117-1.535,3.172a28.52,28.52,0,0,1-2.226,4.291,69.931,69.931,0,0,1-11.34,13.419c-.1.088-.2.183-.3.274-1.011.929-1.8,1.549-2.768,1.067-1.113-.555-.994-1.918-.889-3.12l.012-.137a34.482,34.482,0,0,1,7.8-19.615,6.754,6.754,0,0,1,1.05-.938l.231-.182c-.01.056-.02.112-.029.168a11.793,11.793,0,0,1-.239,1.162c-.1.372-.229.749-.35,1.114a16.413,16.413,0,0,0-.482,1.631,2.407,2.407,0,0,0,.221,1.82,1.786,1.786,0,0,0,1.164.769,7.24,7.24,0,0,0,1.522.143c.75-.012,1.145-.155,1.284-.464a30.744,30.744,0,0,0,2.039-6.072,3.031,3.031,0,0,0-2.1-3.435c-.3-.129-.615-.264-.915-.4a23.168,23.168,0,0,0-3.361-1.264,3.721,3.721,0,0,0-2.661.411,15.2,15.2,0,0,0-2.066,1.653c-.372.335-.756.681-1.148.993a2.919,2.919,0,0,1-1.267.7c-3.351.4-6.682.708-9.5.961a1.471,1.471,0,0,1-.911-.236c-.568-.429-1.106-.91-1.675-1.42l-.4-.359,2.359-1.824a.36.36,0,0,0,.123-.389l-.122-.4a.358.358,0,0,0-.288-.249c-.217-.034-.433-.078-.663-.125a6.473,6.473,0,0,0-1.571-.19,8.368,8.368,0,0,0-3.135.739,8.2,8.2,0,0,0-2.576,1.851,34.879,34.879,0,0,0-4.9,6.171,90.69,90.69,0,0,1-12.791,16.986,33.211,33.211,0,0,1-5.835,4.609,1.821,1.821,0,0,1-1.674.347,1.95,1.95,0,0,1-.994-1.5,13.625,13.625,0,0,1-.235-4.262,39,39,0,0,1,4.43-13.334c.19-.373.357-.765.517-1.144a8.272,8.272,0,0,1,1.068-2.005,31.414,31.414,0,0,1,2.839-2.934c.328-.311.666-.632,1-.952a1.417,1.417,0,0,1,.355-.215h0a4.756,4.756,0,0,1-.156.88c-.231.714-.484,1.437-.728,2.136s-.507,1.448-.743,2.18a2.515,2.515,0,0,0,1.663,3.277,2.234,2.234,0,0,0,3.023-1.477c.247-.567.514-1.139.772-1.692.334-.718.68-1.46.991-2.207a5.528,5.528,0,0,0,.428-3.041,3.445,3.445,0,0,0-1.467-2.322,20.9,20.9,0,0,0-4.46-2.361,4.233,4.233,0,0,0-3,.22,10.287,10.287,0,0,0-3.07,2.266,39.9,39.9,0,0,0-6,8.328,38.118,38.118,0,0,0-3.577,9.625,19.4,19.4,0,0,0-.554,5.6,11.614,11.614,0,0,0,1.7,5.451,7.343,7.343,0,0,0,7.885,3.321c3.868-.883,6.664-3.421,8.888-5.787,1.266-1.346,2.446-2.755,3.7-4.246q.509-.608,1.04-1.237c-.057.706-.107,1.316-.162,1.935a5.611,5.611,0,0,0,2.134,5.2,5.172,5.172,0,0,0,2.6.958,6.386,6.386,0,0,0,3.067-.526,14.565,14.565,0,0,0,5.853-4.732,31.344,31.344,0,0,0,4.612-7.932,21.749,21.749,0,0,0,1.47-8.852l6.366-1.087c-.167.3-.3.537-.437.781a38.766,38.766,0,0,0-3.336,7.719,23.431,23.431,0,0,0-.975,8.373c.152,2.181.324,4.653,3.044,6.283a8.975,8.975,0,0,0,5.985,1.4,7.126,7.126,0,0,0,2.757-1.062,9.321,9.321,0,0,0,2.391-2.281,1.157,1.157,0,0,1,.226-.2,2.369,2.369,0,0,0,.255-.207c.358-.346.725-.7,1.08-1.034.941-.9,1.913-1.822,2.821-2.786a13.647,13.647,0,0,0,1.3-1.716l.136-.2c.01.175.02.346.029.515a18.419,18.419,0,0,0,.252,2.538,5.093,5.093,0,0,0,.9,2.149,3.752,3.752,0,0,0,2.026,1.345,6.325,6.325,0,0,0,1.714.224,10.149,10.149,0,0,0,4.42-1.127,9.055,9.055,0,0,0,4.464-4.324,11.71,11.71,0,0,1,1.685-3.129,15.414,15.414,0,0,0,3.221-7.2,13.966,13.966,0,0,0,.049-6.273A9.533,9.533,0,0,0,908.015,427.147Zm-2.406,8.477c-.888,4.655-3.041,9.029-6.75,13.685.686-5.727,2.7-11.556,6.277-18.194C906.167,432.7,905.884,434.184,905.609,435.625Zm-40.344-1.809a27.8,27.8,0,0,1-7.759,16.037c.718-5.014,2.671-9.7,4.564-14.242.3-.732.62-1.486.926-2.235Z" transform="translate(-828.137 -410.279)" fill="url(#linear-gradient-2)"/>
        </g>
      </g>
      <g id="Group_58" data-name="Group 58" transform="translate(50.443 60.494)">
        <path id="Path_178" data-name="Path 178" d="M950.9,532.765h-6.442v5.383h6.21v.962h-6.21v6.152h-1.018V531.8h7.46Z" transform="translate(-943.436 -531.592)" fill="#fff"/>
        <path id="Path_179" data-name="Path 179" d="M976.3,543.174a6.986,6.986,0,1,1,2.019-4.913A6.68,6.68,0,0,1,976.3,543.174Zm-9.121-.693a5.939,5.939,0,0,0,8.4,0,6.034,6.034,0,0,0,0-8.439,5.94,5.94,0,0,0-8.4,0,6.033,6.033,0,0,0,0,8.439Z" transform="translate(-955.252 -531.32)" fill="#fff"/>
        <path id="Path_180" data-name="Path 180" d="M1010.555,545.262l-3.243-5.519h-4.235v5.519h-1.019V531.8h5.307a3.967,3.967,0,0,1,3.143,6.4,3.948,3.948,0,0,1-2.125,1.4l3.345,5.653Zm-7.479-12.5v6.017h4.288a2.837,2.837,0,0,0,2.1-.875,2.907,2.907,0,0,0,.865-2.125,2.941,2.941,0,0,0-.865-2.134,2.823,2.823,0,0,0-2.1-.884Z" transform="translate(-976.411 -531.592)" fill="#fff"/>
        <path id="Path_181" data-name="Path 181" d="M1041.746,544.3h6.344v.961h-7.363V531.8h1.019Z" transform="translate(-998.162 -531.592)" fill="#fff"/>
        <path id="Path_182" data-name="Path 182" d="M1062.392,531.8h1.019v13.459h-1.019Z" transform="translate(-1010.349 -531.592)" fill="#fff"/>
        <path id="Path_183" data-name="Path 183" d="M1079.826,532.765h-6.441v5.383h6.21v.962h-6.21v6.152h-1.019V531.8h7.46Z" transform="translate(-1015.959 -531.592)" fill="#fff"/>
        <path id="Path_184" data-name="Path 184" d="M1096.147,544.3h6.73v.961h-7.748V531.8h7.653v.962h-6.634v5.229h6.152v.962h-6.152Z" transform="translate(-1028.763 -531.592)" fill="#fff"/>
      </g>
      <g id="Group_59" data-name="Group 59" transform="translate(0 66.809)">
        <path id="Path_185" data-name="Path 185" d="M859.882,545.754c0,.024.133.049-.081.06-.675.023-1.218-.059-1.894-.035l-.049.039c-.523-.017-1.067-.039-1.624-.057q-1.536.009-3.058.028c.027.014.039.028-.062.033-.422.011-1.006,0-1.612-.007l-.267.007a.17.17,0,0,0-.1.031c-.274,0-.517-.005-.743-.009-2.973.077-5.992.168-9.263.258-.692.036-1.384.072-2.051.089-.988.015-2.248-.01-3.211-.015.148.139-2.2.206-1.732.346a15.741,15.741,0,0,0-1.655.032,5.6,5.6,0,0,1-2.348.324c-.667.016-1.692-.033-1.927-.009-.371.038.865.083.494.12,4.959.043,9.734-.008,14.727-.007,1.7-.062,13.163-.089,16.107-.061l.267,0c1.607.007,3.557,0,4.917-.056.623-.032,1.257-.072,1.889-.11-.294-.023-.565-.046-.8-.068.643,0,1.285.006,1.532-.019,1.368-.06.593-.129.067-.223-.378-.041.133-.1-.459-.147l1.071.005c.049-.039-1.319.02-1.022-.044.412.015.873-.009,1.3-.007-.148-.053-1.482-.02-1.416-.073a10.386,10.386,0,0,0,1.285.006c.017-.013-.412-.015-.626-.016,1.318-.02,2.044-.082.841-.154.417,0,1.008.03,1.449.021h0c-.22,0-.6-.016-.8-.017l.752,0-.131-.028c-.187-.008-.375-.014-.57-.015l.5,0c-.125-.021-.268-.042-.426-.061-.593-.042-1.161-.1-1.482-.106C865.074,545.78,862.471,545.758,859.882,545.754Z" transform="translate(-828.138 -545.754)" fill="#fff"/>
      </g>
      <g id="Group_60" data-name="Group 60" transform="translate(133.307 66.809)">
        <path id="Path_186" data-name="Path 186" d="M1142.787,547.005c0-.024-.133-.049.081-.059.675-.023,1.218.058,1.894.035l.049-.039c.523.017,1.068.039,1.624.057q1.536-.009,3.058-.028c-.027-.014-.039-.028.062-.033.422-.011,1.007,0,1.612.007l.267-.007a.175.175,0,0,0,.1-.031c.273,0,.517,0,.743.009,2.973-.077,5.992-.168,9.263-.258.692-.036,1.384-.072,2.051-.089.988-.015,2.248.01,3.211.015-.148-.139,2.2-.207,1.731-.347a15.832,15.832,0,0,0,1.656-.031,5.6,5.6,0,0,1,2.348-.324c.667-.017,1.692.033,1.927.009.37-.038-.865-.083-.495-.121-4.959-.042-9.734.008-14.727.007-1.7.061-13.164.088-16.107.061l-.267,0c-1.606-.008-3.557,0-4.917.056-.623.033-1.258.072-1.889.111.293.023.565.046.8.068-.643,0-1.285-.006-1.532.019-1.368.059-.593.129-.066.223.378.041-.134.1.459.147l-1.071,0c-.049.039,1.319-.02,1.021.044-.412-.015-.873.009-1.3.007.148.053,1.482.02,1.416.072a10.462,10.462,0,0,0-1.285-.006c-.016.013.412.015.626.016-1.318.02-2.043.083-.841.154-.418,0-1.008-.03-1.449-.021h0c.22,0,.6.016.8.017l-.752,0c.039.009.084.018.131.027.187.008.375.014.571.016l-.5,0c.125.022.268.042.425.061.593.042,1.162.1,1.482.105C1137.6,546.979,1140.2,547,1142.787,547.005Z" transform="translate(-1132.839 -545.754)" fill="#fff"/>
      </g>
    </g>
    <rect id="Rectangle_61" data-name="Rectangle 61" width="175" height="87" transform="translate(828.137 378.548)" fill="none"/>
  </g>
</svg>
